# xmcd
#
# Track frame offsets:
#	150
#	49210
#	84025
#	122142
#
# Disc length: 2228 seconds
#
# Revision: 0
# Processed by: cddbd v1.5.2PL0 Copyright (c) Steve Scherf et al.
# Submitted via: EZCDAudioConverter 8.0.2.1
#
DISCID=2808b204
DTITLE=Hòa Tấu - Bebop
DYEAR=1995
DGENRE=
TTITLE0=LK Bebop 1
TTITLE1=LK Bebop 2
TTITLE2=LK Bebop 3
TTITLE3=LK Bebop 4
EXTD=
EXTT0=
EXTT1=
EXTT2=
EXTT3=
PLAYORDER=
